<?xml version="1.0" encoding="utf-8"?>
<!-- Generator: Adobe Illustrator 19.0.0, SVG Export Plug-In . SVG Version: 6.00 Build 0)  -->
<svg version="1.1" id="layer" xmlns="http://www.w3.org/2000/svg" xmlns:xlink="http://www.w3.org/1999/xlink" x="0px" y="0px"
	 viewBox="-153 -46 652 652" style="enable-background:new -153 -46 652 652;" xml:space="preserve">
<style type="text/css">
	.st0{fill:#425563;}
	.st1{fill:#FFC72C;}
</style>
<rect x="-126.5" y="135.6" class="st0" width="100" height="100"/>
<path class="st1" d="M213.8,228.3c6-0.1,11,4.8,11.1,10.8c0.1,6-4.8,11-10.8,11.1c-6,0.1-11-4.8-11.1-10.8c0,0,0-0.1,0-0.1
	C203,233.3,207.8,228.4,213.8,228.3z M363.7,288.5c0,9.7,6.5,15.1,14.3,15.1c5.3,0.2,10.1-2.8,12.1-7.7c0.3-0.8,1.2-1.2,2-1
	l13.4,4.1c0.9,0.3,1.4,1.2,1.1,2.1c0,0,0,0.1,0,0.1c-3.2,10.1-13.1,19.6-28.6,19.6c-18.2,0-32.8-13.4-32.8-32.3
	c0-18.9,14.2-32.4,32.2-32.4c16,0,25.7,9.3,28.9,19.6c0.3,0.9-0.1,1.8-1,2.1c0,0-0.1,0-0.1,0l-13.6,4.1c-0.8,0.2-1.7-0.2-2-1
	c-1.7-4.1-5.3-7.7-11.8-7.7C370,273.3,363.7,278.7,363.7,288.5z M307.4,256.1c-18.2,0-32.4,13.4-32.4,32.3s14.2,32.4,32.4,32.4
	s32.4-13.5,32.4-32.4C339.8,269.5,325.7,256.1,307.4,256.1z M307.4,303.6c-7,0-13.7-5-13.7-15.2s6.8-15.1,13.7-15.1
	c7,0,13.8,4.8,13.8,15.1S314.6,303.6,307.4,303.6L307.4,303.6z M272.3,274.5c-0.1,0.9-1,1.5-1.9,1.4c-1.2-0.2-2.4-0.2-3.5-0.2
	c-7.5,0-14.2,4.5-14.2,16.6v25c0,0.9-0.7,1.7-1.7,1.7h-15.4c-0.9,0-1.7-0.7-1.7-1.7v-57.7c0-0.9,0.7-1.7,1.7-1.7h14.8
	c0.9,0,1.7,0.7,1.7,1.7v6.6c3.2-6.9,10.9-8.9,15.8-8.9c1.8,0,3.6,0.2,5.4,0.6c0.9,0.2,1.4,1,1.3,1.9L272.3,274.5z M206.2,257.9h15.4
	c0.9,0,1.7,0.7,1.7,1.7v57.7c0,0.9-0.7,1.7-1.7,1.7h-15.4c-0.9,0-1.7-0.7-1.7-1.7v-57.7C204.5,258.7,205.3,257.9,206.2,257.9z
	 M169,256.5c-8.7,0-15.4,3.8-17.9,7.7v-4.6c0-0.9-0.7-1.7-1.7-1.7h-14.7c-0.9,0-1.6,0.7-1.7,1.6c0,0,0,0,0,0v81
	c0,0.9,0.7,1.7,1.7,1.7h15.4c0.9,0,1.6-0.7,1.6-1.6v-26.5c2.8,3.4,8.7,6.1,16.6,6.1c17.1,0,29.1-13.4,29.1-32.1
	C197.4,270,186.7,256.5,169,256.5z M165.2,303.6c-7.3,0-13.8-5.2-13.8-15.2s6.5-15.1,13.8-15.1s13.9,4.9,13.9,15.1
	C179.1,298.6,172.6,303.6,165.2,303.6L165.2,303.6z M69.7,317.3v-83.8c0-0.9,0.7-1.6,1.7-1.7h51.9c0.9,0,1.6,0.7,1.7,1.7v15
	c0,0.9-0.7,1.6-1.7,1.7H90.8c-0.9,0-1.7,0.7-1.7,1.7v13.3c0,0.9,0.7,1.7,1.7,1.7h29.1c0.9,0,1.6,0.8,1.6,1.7v13.7
	c0,0.9-0.7,1.7-1.7,1.7H90.7c-0.9,0-1.6,0.7-1.7,1.7v13.4c0,0.9,0.7,1.7,1.7,1.7h32.6c0.9,0,1.7,0.7,1.7,1.7v15.1
	c0,0.9-0.7,1.6-1.6,1.7c0,0,0,0,0,0h-52C70.4,319,69.7,318.3,69.7,317.3C69.7,317.3,69.7,317.3,69.7,317.3z M40.6,264.2V249
	c0-3.1-1.7-6-4.4-7.6l-42.7-24.7c-2.7-1.6-6.1-1.6-8.8,0l-42.7,24.7c-2.7,1.6-4.4,4.5-4.5,7.6v49.3c0,3.1,1.7,6,4.4,7.6l42.7,24.7
	c2.7,1.6,6.1,1.6,8.8,0L36.2,306c2.7-1.6,4.4-4.4,4.4-7.6v-22.4l-51.5,30.8l-28.6-16.5v-33.1l25.7-14.8c1.8-1,4-1,5.9,0l25.7,15
	l-26.5,15.3c-1.9,1.1-4.2,1.1-6.1,0l-19-11v25.7l22.5,12l47.5-27.4C38.9,270.3,40.6,267.4,40.6,264.2z"/>
</svg>
